<?xml version="1.0" encoding="utf-8"?>
<!-- Generator: Adobe Illustrator 28.1.0, SVG Export Plug-In . SVG Version: 6.00 Build 0)  -->
<svg version="1.1" id="Camada_1" xmlns="http://www.w3.org/2000/svg" xmlns:xlink="http://www.w3.org/1999/xlink" x="0px" y="0px"
	 viewBox="0 0 500 500" style="enable-background:new 0 0 500 500;" xml:space="preserve">
<style type="text/css">
	.st0{opacity:0.8;fill:#E43939;enable-background:new    ;}
	.st1{fill:#E43939;}
</style>
<g>
	<path class="st0" d="M249.9,250c0-5.5,0.5-10.9,1.6-16.3c1-5.4,2.6-10.6,4.7-15.6c2.1-5.1,4.6-9.9,7.6-14.4s6.4-8.8,10.2-12.6
		s7.9-7.3,12.4-10.4c4.5-3,9.2-5.6,14.2-7.7c5-2.1,10.1-3.7,15.4-4.7c5.3-1.1,10.6-1.6,16-1.6s10.7,0.5,16,1.6s10.4,2.6,15.4,4.7
		c5,2.1,9.7,4.7,14.2,7.7s8.6,6.5,12.4,10.4s7.2,8.1,10.2,12.6s5.5,9.4,7.6,14.4c2.1,5.1,3.6,10.3,4.7,15.6c1,5.4,1.6,10.8,1.6,16.3
		s-0.5,10.9-1.6,16.3c-1,5.4-2.6,10.6-4.7,15.6c-2.1,5.1-4.6,9.9-7.6,14.4s-6.4,8.8-10.2,12.6s-7.9,7.3-12.4,10.4
		c-4.5,3-9.2,5.6-14.2,7.7s-10.1,3.7-15.4,4.7c-5.3,1.1-10.6,1.6-16,1.6s-10.7-0.5-16-1.6s-10.4-2.6-15.4-4.7s-9.7-4.7-14.2-7.7
		s-8.6-6.5-12.4-10.4s-7.2-8.1-10.2-12.6c-3-4.6-5.5-9.4-7.6-14.4c-2.1-5.1-3.6-10.3-4.7-15.6C250.4,260.9,249.9,255.5,249.9,250z"
		/>
	<path class="st0" d="M86.1,416.7c0-5.5,0.5-10.9,1.6-16.3c1-5.4,2.6-10.6,4.7-15.6c2.1-5.1,4.6-9.9,7.6-14.4s6.4-8.8,10.2-12.6
		c3.8-3.9,7.9-7.3,12.4-10.4c4.5-3,9.2-5.6,14.2-7.7s10.1-3.7,15.4-4.7c5.3-1.1,10.6-1.6,16-1.6h81.9v83.3c0,5.5-0.5,10.9-1.6,16.3
		c-1,5.4-2.6,10.6-4.7,15.6c-2.1,5.1-4.6,9.9-7.6,14.4s-6.4,8.8-10.2,12.6c-3.8,3.9-7.9,7.3-12.4,10.4c-4.5,3-9.2,5.6-14.2,7.7
		s-10.1,3.7-15.4,4.7c-5.3,1.1-10.6,1.6-16,1.6s-10.7-0.5-16-1.6s-10.4-2.6-15.4-4.7s-9.7-4.7-14.2-7.7s-8.6-6.5-12.4-10.4
		s-7.2-8.1-10.2-12.6s-5.5-9.4-7.6-14.4c-2.1-5.1-3.6-10.3-4.7-15.6C86.6,427.6,86.1,422.1,86.1,416.7z"/>
	<path class="st1" d="M249.9,0v166.7h81.9c5.4,0,10.7-0.5,16-1.6s10.4-2.6,15.4-4.7c5-2.1,9.7-4.7,14.2-7.7s8.6-6.5,12.4-10.4
		s7.2-8.1,10.2-12.6s5.5-9.4,7.6-14.4c2.1-5.1,3.6-10.3,4.7-15.6c1-5.4,1.6-10.8,1.6-16.3s-0.5-10.9-1.6-16.3
		c-1-5.4-2.6-10.6-4.7-15.6c-2.1-5.1-4.6-9.9-7.6-14.4s-6.4-8.8-10.2-12.6s-7.9-7.3-12.4-10.4c-4.5-3-9.2-5.6-14.2-7.7
		s-10.1-3.7-15.4-4.7c-5.3-1.1-10.6-1.6-16-1.6L249.9,0L249.9,0z"/>
	<path class="st0" d="M86.1,83.3c0,5.5,0.5,10.9,1.6,16.3c1,5.4,2.6,10.6,4.7,15.6c2.1,5.1,4.6,9.9,7.6,14.4s6.4,8.8,10.2,12.6
		c3.8,3.9,7.9,7.3,12.4,10.4c4.5,3,9.2,5.6,14.2,7.7c5,2.1,10.1,3.7,15.4,4.7c5.3,1.1,10.6,1.6,16,1.6h81.9V0H168
		c-5.4,0-10.7,0.5-16,1.6s-10.4,2.6-15.4,4.7s-9.7,4.7-14.2,7.7s-8.6,6.5-12.4,10.4s-7.2,8.1-10.2,12.6s-5.5,9.4-7.6,14.4
		c-2.1,5.1-3.6,10.3-4.7,15.6C86.6,72.4,86.1,77.9,86.1,83.3z"/>
	<path class="st1" d="M86.1,250c0,5.5,0.5,10.9,1.6,16.3c1,5.4,2.6,10.6,4.7,15.6c2.1,5.1,4.6,9.9,7.6,14.4s6.4,8.8,10.2,12.6
		c3.8,3.9,7.9,7.3,12.4,10.4c4.5,3,9.2,5.6,14.2,7.7s10.1,3.7,15.4,4.7c5.3,1.1,10.6,1.6,16,1.6h81.9V166.7H168
		c-5.4,0-10.7,0.5-16,1.6s-10.4,2.6-15.4,4.7c-5,2.1-9.7,4.7-14.2,7.7s-8.6,6.5-12.4,10.4s-7.2,8.1-10.2,12.6s-5.5,9.4-7.6,14.4
		c-2.1,5.1-3.6,10.3-4.7,15.6C86.6,239.1,86.1,244.5,86.1,250z"/>
</g>
</svg>
