<?xml version="1.0" encoding="utf-8"?>
<!-- Generator: Adobe Illustrator 28.1.0, SVG Export Plug-In . SVG Version: 6.00 Build 0)  -->
<svg version="1.1" id="Layer_1" xmlns="http://www.w3.org/2000/svg" xmlns:xlink="http://www.w3.org/1999/xlink" x="0px" y="0px"
	 viewBox="0 0 2123 2500" style="enable-background:new 0 0 2123 2500;" xml:space="preserve">
<style type="text/css">
	.st0{fill:#E43939;}
	.st1{opacity:0.4;}
</style>
<g>
	<path class="st0" d="M366.9,1071.9c-11.2-6.5-23.6-13-37.1-17.7c-13.6-4.7-28.3-8.8-44.2-11.8c-15.9-2.9-33-4.1-51.3-4.1
		c-34.8,0-67.2,5.3-95.5,15.3c-28.9,10.6-53.1,25.4-73.7,43.6c-20,18.9-36,41.3-47.2,67.2c-10.6,25.9-16.5,54.2-16.5,85.5
		c0,30.1,5.9,59,17.1,84.3c11.2,25.9,27.1,48.3,47.2,67.2c20,18.9,44.2,33.6,71.3,44.2s57.2,15.9,89,15.9c17.7,0,34.2-0.6,49.5-2.4
		s30.1-4.1,43.6-7.7c13.6-3.5,26.5-8.3,38.9-13.6c12.4-5.3,24.2-12.4,35.4-20c1.8-1.2,3.5-3.5,3.5-5.9v-169.2c0-4.1-3.5-7.7-7.7-7.7
		H237.8c-4.1,0-7.7,3.5-7.7,7.7v67.8c0,4.1,3.5,7.7,7.7,7.7H292v47.8c-7.7,2.9-15.3,4.7-24.2,6.5c-10,2.4-21.8,2.9-34.8,2.9
		c-17.1,0-32.4-2.9-46.6-8.3s-26.5-13.6-36.6-24.2c-10-10.6-18.3-23.6-24.2-38.9s-8.8-33.6-8.8-54.2c0-18.3,2.9-34.8,8.3-49.5
		c5.3-14.7,13-27.1,22.4-37.7c9.4-10.6,21.2-18.3,35.4-24.2c13.6-5.9,29.5-8.8,47.2-8.8c9.4,0,18.3,0.6,25.9,1.2
		c7.7,0.6,14.7,2.4,21.8,4.1c7.1,1.8,13.6,4.1,20,7.7c7.1,2.9,38.9,21.2,46,25.4c5.3,2.9,8.3,2.9,11.8-1.8l43-62.5
		c2.4-2.9,1.8-7.1-1.2-10C388.7,1086.7,378.1,1079,366.9,1071.9L366.9,1071.9z M743.1,1307.8c-4.7-7.1-10-13.6-16.5-18.3
		c-1.8-1.8-4.1-2.9-6.5-4.7c8.8-4.1,16.5-8.8,24.2-14.2c11.2-8.3,20.6-17.7,28.3-27.7c7.7-10.6,13.6-21.8,17.7-34.2
		c4.1-12.4,5.9-25.4,5.9-38.9c0-17.7-3.5-34.8-10-50.1s-17.7-29.5-32.4-40.7c-14.7-11.2-33-20-56-25.9c-22.4-5.9-49.5-9.4-80.8-9.4
		H479c-4.1,0-7.7,3.5-7.7,7.7v399.8c0,4.1,3.5,7.7,7.7,7.7H578c4.1,0,7.7-3.5,7.7-7.7v-140.9h17.7c7.7,0,12.4,1.2,14.2,2.4
		c2.9,1.8,5.9,4.1,8.3,8.3l70.8,116.2c8.8,14.2,23,21.2,41.9,21.2H828c4.1,0,7.7-3.5,7.7-7.7c0-2.4-1.2-4.1-2.4-5.3L743.1,1307.8z
		 M681.2,1198.1c-2.4,6.5-5.9,12.4-11.2,17.1c-5.3,4.7-12.4,8.8-20.6,11.8c-8.8,2.9-19.5,4.1-31.8,4.1h-32.4v-103.8h32.4
		c23.6,0,41.3,4.7,51.9,13s15.3,20,15.3,35.4C684.7,1184,683.6,1191.6,681.2,1198.1z M1240.2,1043h-99.1c-4.1,0-7.7,3.5-7.7,7.7v237
		c0,13-1.8,25.4-5.3,35.4c-3.5,10-8.3,18.9-14.7,25.4c-6.5,7.1-14.2,12.4-23.6,15.9c-18.9,7.7-46.6,7.7-65.4,0
		c-9.4-3.5-17.1-8.8-23.6-15.9s-11.2-15.3-14.7-25.9c-3.5-10-5.3-22.4-5.3-35.4v-237c0-4.1-3.5-7.7-7.7-7.7H874
		c-4.1,0-7.7,3.5-7.7,7.7v237c0,25.4,4.7,48.9,13,70.2c8.8,21.2,21.8,40.1,38.3,55.4c16.5,15.3,36.6,27.7,60.1,36
		c23.6,8.3,50.1,13,79,13s55.4-4.1,79-13c23.6-8.8,43.6-20.6,60.1-36c16.5-15.3,29.5-34.2,38.3-55.4c8.8-21.2,13.6-44.8,13.6-70.8
		v-237C1247.2,1046.6,1244.3,1043,1240.2,1043L1240.2,1043z M1705.4,1043h-87.3c-4.1,0-7.7,3.5-7.7,7.7v211.7c0,6.5,0,13,0.6,20
		l-187.5-222.9c-2.9-3.5-5.9-5.9-8.3-8.3c-2.9-2.4-5.9-4.1-8.8-5.3c-2.9-1.2-6.5-2.4-10-2.4c-2.9-0.6-7.1-0.6-11.8-0.6h-51.9
		c-4.1,0-7.7,3.5-7.7,7.7v400.4c0,4.1,3.5,7.7,7.7,7.7h87.3c4.1,0,7.7-3.5,7.7-7.7v-214.6c0-5.3,0-11.2-0.6-17.1l186.3,221.1
		c5.9,6.5,11.8,11.8,18.3,14.2c5.9,2.4,13.6,4.1,22.4,4.1h51.3c4.1,0,7.7-3.5,7.7-7.7v-400.4C1713,1046.6,1709.5,1043,1705.4,1043
		L1705.4,1043z M2114,1043h-338.4c-4.1,0-7.7,3.5-7.7,7.7v73.7c0,4.1,3.5,7.7,7.7,7.7h112.6v319c0,4.1,3.5,7.7,7.7,7.7h99.1
		c4.1,0,7.7-3.5,7.7-7.7v-319h112.6c4.1,0,7.7-3.5,7.7-7.7v-73.7C2121.6,1046.6,2118.1,1043,2114,1043L2114,1043z"/>
</g>
<g id="SVGRepo_bgCarrier">
</g>
<g id="SVGRepo_tracerCarrier">
</g>
<g id="SVGRepo_iconCarrier" class="st1">
	<path class="st0" d="M556.2,992.9c-4.3,38.6,20.1,73.8,20.1,73.8c2.7-29,8.5-49.5,15.5-64.1c1.5,39.8,12.4,90.8,49.5,131.8
		c26.6,29.4,137.6,90,212.1,23.6c3.9,9.3,8.1,20.5,11.6,32.8c11.2,39.8-10.4,97.7-10.4,97.7s58.4-66.1,53.7-125.6
		c41.7-1.9,82.7-32.5,81.5-75.4c0,0-73,40.2-137.2-34c-37.5-43.3-158-162.3-321.1-122.9c16.6,3.9,34.4,9.3,52.2,15.8h-0.4
		C567,954.2,558.1,973.9,556.2,992.9L556.2,992.9z M665.5,986c75.4,42.5,144.5,99.3,173.5,143c-22,12.7-83.8,40.2-146.8-6.6
		C652.4,1093.1,654.3,1021.2,665.5,986L665.5,986z M1214.6,1162.9c-4.6,59.9,53.7,125.6,53.7,125.6s-21.6-58-10.4-97.7
		c3.5-12.4,7.7-23.2,11.6-32.8c74.6,66.8,185.5,5.8,211.8-23.6c37.1-40.9,47.5-91.9,49.5-131.8c7,14.7,13.1,35.2,15.5,64.1
		c0,0,24.7-35.2,20.1-73.8c-2.3-19.4-11.2-38.6-27.1-45.6h-0.4c17.7-7,35.6-12.4,52.2-15.8c-163.5-39.4-283.7,79.6-321.1,122.9
		c-64.5,74.2-137.2,34-137.2,34C1132,1130.5,1172.9,1161.4,1214.6,1162.9z M1456.9,986c11.6,35.2,13.2,107-27.1,136.8
		c-62.9,46.7-124.4,19.4-146.5,6.2C1312.4,1084.9,1381.5,1028.4,1456.9,986L1456.9,986z M937.6,1878.6H824
		c-21.3,0-31.7,6.2-36.7,11.2c-7.4,7.7-8.5,18.2-3.5,31.3c13.5,35.2,44.1,63.7,52.9,71.9c12,10.4,29,16.6,45.6,16.6
		c17,0,32.1-6.6,42.5-17.7c29-31.7,46-66.1,50.3-76.5c2.3-5.8,5-17.4-3.5-26.3c-7-7-18.2-10.4-34-10.4L937.6,1878.6z M1668.7,1487.5
		c-9.3,69.2-50.3,130.6-95,168.8c-12-87.7-14.3-214.5-14.3-241.1c0-56.8,36.7-94.7,47.2-100.8c9.6-5.8,20.8-11.6,32-17.8
		c69.6-37.1,156.1-83.5,156.1-168.8c0-62.6-35.9-89.6-59.5-107.5c-3.1-2.3-5.8-4.3-8.5-6.6c-8.1-6.6-14.3-11.6-16.6-17
		c-17-37.9-13.9-132.1-6.6-145.3c2.3-2.3,64.5-80.7,45.6-151.5c-7.7-28.6-26.6-51.4-54.5-65.7c-20.5-10.4-46-16.2-75.4-17.4
		c-0.4-7.7-1.9-15.1-3.5-22.8c-2.3-10.1-4.3-20.5-3.5-31.3c1.5-18.2,3.1-34.8,8.5-43.6c32.5-51.4,111.3-68,112.1-68l47.5-9.3
		l-31.3-36.7c-0.4-0.7-66.8-67.6-178.9-67.6c-30.5,0-61.8,5-93.1,15.1c-93.5,30.1-165.8,117.8-190.9,151.8
		c-12-3.9-24.4-7.4-37.1-10.4c-16.3-61.1,34.8-148.8,34.8-148.8s-52.6-11.6-130.3,58.7c-10-25.1-31.3-79.2-6.9-143.7
		c-114,40.2-142.6,101.6-151.1,157.3c-29.4-20.8-25.9-89.3-27.8-106.7c-29,3.5-112.8,84.6-108.9,186.7c-7.7,1.9-15.1,4.3-22.8,6.6
		c-25.1-34-97-121.7-190.9-151.8c-30.5-8.5-61.8-13.5-92.4-13.5c-112.1,0-178.1,66.8-178.9,67.6l-31.3,36.3l47.5,9.3
		c0.7,0,79.6,16.6,112.1,68c5.4,8.5,7,25.5,8.5,43.6c0.7,10.8-1.5,21.3-3.5,31.3c-1.5,7.4-3.1,15.1-3.5,22.8
		c-29.7,1.2-54.8,7-75.4,17.4c-27.8,14.3-46.7,37.1-54.5,65.7c-19.4,70.3,43.3,148.8,45.6,151.5c7.4,13.2,10.4,107.5-6.6,145.3
		c-2.3,5.4-8.5,10.4-16.6,17c-2.7,1.9-5.4,4.3-8.5,6.6c-23.6,17.7-59.5,45.2-59.5,107.4c0,85.4,86.6,131.8,156.1,168.9
		c11.6,6.2,22.4,12,32.1,17.7c10.4,6.2,47.1,44.1,47.1,100.8c0,26.6-2.3,153.4-14.3,241.1c-44.8-38.3-85.8-100.1-95.1-169.3
		c0,0-112.8,87.4-79.6,273.6c20.1,114,89.6,178.1,181.6,211.4c34,73.8,113.6,176.6,260,191.7c55.6,45.6,132.9,75.4,245.8,75.4h0.7
		c112.5,0,189.7-29.7,245.8-75.4c146.5-15.1,226-117.8,260-191.7c92-33.6,161.1-97.4,181.6-211.4c31.7-187-81.5-274-81.5-274
		L1668.7,1487.5z M1500.6,407.1c21.6-7,44.8-10.4,68.4-10.4c42.5,0,76.9,11.6,95.5,19.4c-12,5.4-24.7,12.4-37.5,20.5
		c-9.3-1.5-21.6-3.1-35.6-3.1c-40.6,0-79.2,12-110.9,34.4c-47.5,33.6-69.6,65.3-80,86.6c-8.5-5-17.4-9.6-27.5-14.3
		c-6.2-3.1-12-5.8-18.2-8.5c23.6-35.2,76.9-102.4,145.7-124.4H1500.6z M1581.7,477.4c-3.1,3.9-6.2,8.1-8.9,12.4
		c-12.7,20.1-15.1,44.8-17,68.8c-1.9,24.7-4.3,48.3-17,65.7c-16.3,3.1-31.3,6.6-44.5,10.4c-8.9-12-21.6-27.1-40.6-43.3
		c5.4-18.5,21.3-62.2,52.2-86.9C1527.6,488,1553.1,478.6,1581.7,477.4z M495.5,436.5C482.8,428,470,421,458,416
		c18.5-7.7,53-19.4,95.5-19.4c23.6,0,46.4,3.5,68.4,10.4c68.8,22.4,122.1,89.6,145.7,124c-6.2,2.7-12.4,5.4-18.5,8.5
		c-9.6,4.6-18.9,9.6-27.5,14.3c-10.1-20.8-32.1-52.9-80-86.6c-32-22.4-70.3-34.4-111.3-34.4c-13.2,0.4-25.5,1.9-34.8,3.5
		L495.5,436.5z M668.3,591.4c-18.9,16.3-32.1,30.9-40.6,43.3c-13.2-3.5-28.2-7.4-44.5-10.4c-12.7-17-14.7-40.6-16.6-65.3
		c-1.9-23.9-4.3-48.7-17-68.8c-2.7-4.3-5.8-8.5-8.9-12.4c28.6,1.2,54.1,10.1,75.4,27.1C647,529.2,662.8,572.8,668.3,591.4z
		 M543.8,1265.7c-10.4-6.2-21.6-12-32.5-17.7c-57.6-30.9-116.7-63-116.7-117.8c0-42.9,16.6-56.4,34.4-70.3l1.9-1.5
		c2.7-2.3,5.4-4.6,8.5-7c-3.5,27.8-7.4,51.4-10.4,57.6c0,0,46.7-58,60.7-171.2c5.4-44.5-4.3-132.6-19.7-166.2
		c0.7,18.9,0,37.9-1.2,55.6c-1.5-3.1-3.1-6.2-5-8.5c-12.4-15.5-45.6-67.6-36.3-102.8c3.5-13.5,12-23.2,25.9-30.2
		c14.7-7.4,34-11.2,58.4-11.2c47.5,0,100.1,14.3,127.1,23.2c97,30.9,214.1,119.4,247.7,145.7c0.7,0.7,1.5,1.1,1.5,1.1l21.6,15.1
		l-13.5-22.4c-0.7-1.2-73.8-121.3-205.6-179.7c7.7-11.2,28.6-31.3,83.5-58.4c82.7-40.6,179.7-61,287.1-61
		c107.8,0,204.4,20.5,287.1,61c54.8,26.6,75.7,47.2,83.5,58.4c-131.4,58.4-204.4,178.5-205.2,179.7l-13.5,22.4l21.6-15.1
		c0,0,0.8-0.4,1.5-1.1c33.6-26.3,150.7-115.2,247.7-145.7c27.1-8.5,79.6-23.2,127.1-23.2c24.4,0,43.6,3.9,58.4,11.2
		c13.5,7,22.1,17,25.9,30.2c9.6,35.2-23.6,87.3-36.4,102.8c-1.9,2.3-3.5,5-5,8.5c-1.1-17.7-1.9-36.7-1.1-55.6
		c-15.5,34-25.1,121.7-19.7,166.2c13.9,113.2,60.7,171.2,60.7,171.2c-3.1-6.2-7-29.7-10.4-57.6c2.7,2.3,5.8,4.6,8.5,7l1.9,1.5
		c17.8,14.3,34.4,27.5,34.4,70.3c0,54.8-59.5,86.9-116.7,117.8c-11.2,5.8-22,12-32.5,17.7c-33.6,19.4-69.6,64.5-73.8,132.2
		c-3.5,56.4,3.5,192.8,13.2,293.3c-47.9,18.5-103.2,24.7-153.4,26.3c-7.7-15.8-15.1-32.8-21.3-50.6c-2.7-7.7-75.7-197.5-102-240.3
		c21.3,150.7,67.6,284.8,90.8,346.2c-13.5-1.9-28.2-2.7-45.2-2.7H835.1c-17,0-32.1,1.2-45.2,2.7c23.2-61.5,69.9-195.6,90.8-346.2
		c-26.3,43.3-99.3,233-102,240.3c-6.2,17.8-13.5,34.8-21.3,50.6c-50.3-1.5-105.1-7.7-153.4-26.3c9.6-100.5,16.6-236.5,13.2-293.3
		C613.8,1330.7,577.4,1285.1,543.8,1265.7z M453.8,1824.9c-46.7-77.3-33.6-209-14.3-228.4c42.1,132.9,182.4,171.2,287.5,175.4
		c-10.4,16.3-20.1,29.4-27.1,38.6l-5.4,5.4c-27.8,30.2-33.3,71.5-15.8,122.9C591,1938.5,499.8,1901,453.8,1824.9L453.8,1824.9z
		 M630.4,1992.9c23.2,4.3,47.1,7.4,71.9,9.3c13.5,30.9,28.6,61.5,47.5,89.3C694.1,2068.7,655.5,2029.7,630.4,1992.9z M1061.2,2186.5
		c-234.2-0.4-302.6-177-328.1-250c-14.3-40.6-13.2-70.3,3.5-89.3c11.2-12.7,36.7-27.8,95.1-27.8h459.1c58.4,0,84.3,15.1,95.1,27.8
		c16.2,18.5,17.4,48.7,3.5,89.3C1363.9,2009.1,1295.5,2186.1,1061.2,2186.5L1061.2,2186.5z M1372.7,2091.5
		c18.9-27.8,34-58.4,47.5-89.3c24.7-1.9,48.7-5,71.9-9.3C1467,2029.7,1428.3,2068.7,1372.7,2091.5z M1668.7,1824.9
		c-46.4,76.1-137.6,113.2-224.5,114.7c17.4-51.4,12-93.1-15.8-122.9c-1.5-1.9-3.5-3.9-5.4-5.8c-7-9.3-16.6-22.4-27.1-38.6
		c105.1-4.6,245.4-42.5,287.5-175.4C1702.7,1616.2,1715.8,1748,1668.7,1824.9z M1060.9,986.7h0.8c49.1-0.4,105.1-68.8,105.1-68.8
		c-38.3,23.2-72.6,31.3-105.5,32.1c-32.8-0.7-67.2-8.9-105.5-32.1C955.8,917.9,1011.8,985.9,1060.9,986.7L1060.9,986.7z
		 M1299.3,1878.2h-113.6c-16.2,0-27.8,3.5-34.4,10.4c-8.5,8.8-5.8,20.1-3.5,25.9c3.9,10,21.3,43.6,50.3,74.6
		c10.4,11.2,25.5,17.4,42.5,17.4s33.6-6.2,45.6-16.3c8.9-7.7,39.4-35.6,52.9-69.9c5-12.7,3.9-23.2-3.5-30.5
		c-5-5-15.5-11.2-36.3-11.6L1299.3,1878.2z"/>
</g>
</svg>
