<?xml version="1.0" encoding="utf-8"?>
<!-- Generator: Adobe Illustrator 28.1.0, SVG Export Plug-In . SVG Version: 6.00 Build 0)  -->
<svg version="1.1" id="Camada_1" xmlns="http://www.w3.org/2000/svg" xmlns:xlink="http://www.w3.org/1999/xlink" x="0px" y="0px"
	 viewBox="0 0 500 500" style="enable-background:new 0 0 500 500;" xml:space="preserve">
<style type="text/css">
	.st0{fill:#E43939;}
	.st1{opacity:0.28;fill-rule:evenodd;clip-rule:evenodd;fill:#E43939;enable-background:new    ;}
</style>
<g>
	<path class="st0" d="M167,150.2c2.2-2.7,3.3-6.4,3.3-11c0-1.9-0.2-4-0.6-6.3c-0.4-2.2-1.3-4.4-2.8-6.6
		c-6.5-9.7-13.4-16.7-20.8-21.1c-7.4-4.3-15.1-6.5-23.1-6.5c-6.9,0-13.8,1.5-20.9,4.5c-7,3-14,7.2-20.9,12.5
		c-6.9,5.4-13.6,11.7-20.2,19.1c-6.5,7.4-12.7,15.5-18.5,24.3s-11.2,18.1-16.1,28c-4.9,9.8-9.2,19.9-13,30.3
		c-3.7,10.4-6.8,20.7-9.1,31.2s-3.7,20.7-4.2,30.6c-0.1,0.6-0.2,1.2-0.2,1.8c0,0.7,0,1.3,0,2c0,5.5,0.7,10.9,2.2,16.3
		c1.4,5.5,3.6,10.4,6.4,14.7c2.9,4.3,6.5,7.9,10.9,10.6s9.6,4,15.8,4c5.3,0,10.9-1.3,16.6-3.9c5.8-2.6,11.5-5.9,17.1-10
		c5.7-4.1,11.2-8.7,16.6-13.8s10.4-10.3,15.1-15.4c-1.6,4.9-3.4,10.4-5.3,16.5c-2,6.1-3.8,12.1-5.5,17.8c-1.7,5.7-3.2,10.9-4.4,15.4
		c-1.2,4.5-1.8,7.7-1.9,9.3c-0.1,0.9-0.2,1.6-0.2,2.3c0,0.8,0,1.5,0,2.2c0,5,0.6,8.4,1.9,10.3c1.2,1.9,3.3,2.8,6.1,2.8
		c1.7,0,3.3-0.6,4.8-1.8c1.6-1.2,3-2.7,4.3-4.5s2.4-3.7,3.4-5.7s1.6-3.9,2.1-5.5c0.2-0.5,0.7-2.1,1.4-4.9c0.8-2.8,1.8-6.3,3-10.4
		s2.5-8.8,4-13.9s3-10.4,4.6-15.7c1.6-5.3,3.2-10.6,4.7-15.7s2.9-9.7,4.2-13.9c1.3-4.1,2.4-7.6,3.3-10.3c0.9-2.8,1.5-4.4,1.9-4.9
		c1.5-4.5,3.2-8.9,4.9-13.1c1.6-4.2,3.1-8.4,4.5-12.5c1.3-4.1,2.4-8.4,3.3-12.7c0.9-4.4,1.3-9,1.3-14c0-1.9-0.3-3.5-0.9-4.9
		c-0.6-1.4-1.3-2.6-2.3-3.4c-1-0.9-2-1.5-3.3-1.9c-1.2-0.4-2.4-0.6-3.7-0.6c-2.6,0-5,0.9-7.4,2.5c-2.4,1.6-4.3,4.4-5.8,8.4
		l-12.2,36.4c-1.5,3.1-3.7,6.7-6.7,10.9s-6.4,8.6-10.2,13.1c-3.9,4.5-8,9-12.4,13.5c-4.4,4.4-8.9,8.4-13.3,11.9s-8.7,6.3-12.8,8.5
		s-7.8,3.3-11,3.3c-2.9,0-5.3-0.8-7.1-2.4c-1.9-1.6-3.4-3.6-4.4-6.1c-1.1-2.5-1.8-5.3-2.2-8.3c-0.4-3.1-0.6-6-0.6-8.9
		c0-8.7,1.4-18.5,4.2-29.4s6.6-21.9,11.4-33.2c4.8-11.2,10.4-22.1,16.6-32.9c6.3-10.7,12.8-20.2,19.6-28.5
		c6.8-8.4,13.7-15.1,20.6-20.1c6.9-5.1,13.5-7.6,19.6-7.6c3.9,0,7.6,1.1,10.9,3.3c3.4,2.2,6.4,5.8,9.2,10.8c3,5.5,5.7,9.7,8.1,12.7
		c2.4,3,5,4.4,7.8,4.4C162.1,154.2,164.7,152.9,167,150.2z"/>
	<path class="st0" d="M498.6,249.3c-1-1.7-2.4-2.6-4.3-2.6c-1,0-2,0.3-3,0.8c-1.1,0.6-2.2,1.2-3.4,2c-11.7,10.5-21.5,19.1-29.9,25.9
		c-8,6.9-14.5,12.3-19.7,16.4s-9.2,7-12.1,8.6c-2.9,1.7-5.1,2.5-6.5,2.5c-1.8,0-3.2-0.4-3.9-1.2c-0.8-0.8-1.2-1.8-1.2-3
		c0.1-0.9,1.2-2.7,3.5-5.4c2.2-2.6,5-5.8,8.3-9.6c3.3-3.8,6.8-8,10.6-12.6c3.7-4.6,7.2-9.3,10.5-14.2s5.9-9.7,8.1-14.5
		s3.2-9.3,3.2-13.6c0-3.2-0.7-6-2.1-8.5c-1.4-2.4-3.2-4.5-5.4-6.1c-2.2-1.6-4.7-2.8-7.6-3.6s-5.7-1.2-8.6-1.2
		c-4.2,0-8.4,0.9-12.6,2.7s-8.3,4-12.3,6.8s-7.9,5.9-11.6,9.4s-7.2,6.9-10.5,10.5c0.3-0.6,0.6-1.6,0.9-3s0.6-2.8,0.9-4.3
		s0.5-3,0.7-4.3c0.2-1.4,0.3-2.3,0.3-3c0-3.1-0.8-5.5-2.3-7c-1.6-1.6-4.1-2.4-7.6-2.4c-2.2,0-4.4,1.2-6.3,3.6
		c-2,2.4-3.7,5.3-5.3,8.6c-1.6,3.3-3,6.6-4.2,10.1c-1.2,3.4-2.1,6-2.9,7.9c-1.2,4.3-2.5,8.7-4,13.1c-0.7,0.3-1.3,0.7-1.8,1.3
		c-2.4,2.5-5.2,5.2-8.3,8.2c-3.1,3-6.3,5.9-9.7,8.8c-3.4,3-6.8,5.8-10.3,8.5c-3.5,2.8-6.8,5.2-9.9,7.3c-3.2,2.1-6.1,3.8-8.9,5.1
		c-2.8,1.3-5.1,1.9-6.9,1.9c-1.5,0-2.5-0.5-3-1.4s-0.8-2.2-0.8-3.7c0-2.5,0.5-5.3,1.4-8.5s1.8-5.9,2.8-8.3
		c2.2-5.6,4.8-12.1,7.6-19.6c3-7.6,6.2-15.7,9.7-24.1c3.5-8.5,7-17.2,10.6-26.1c3.6-8.9,7.1-17.6,10.6-25.8c3.5-8.3,6.7-15.9,9.7-23
		c3-7,5.6-13,7.8-17.8c1.1-2.4,2-4.6,2.8-6.7c0.8-2,1.1-4,1.1-5.9c0-3.9-1.1-6.8-3.3-8.5c-2.2-1.8-4.7-2.7-7.4-2.7
		c-2.7,0-5.4,0.9-8.1,2.5s-4.7,4.5-6.3,8.5l-39.6,100c-2.6,6.6-5.5,13.9-8.6,21.8c-3.1,8-6.2,16-9.3,24c-1.7,4.3-3.1,9-4.3,14.1
		c-1.1,0.9-2.1,1.7-3.2,2.5c-4.4,3.3-8.6,5.9-12.7,7.8c-4,1.9-7.3,2.8-10.1,2.8c-3.8,0-5.8-1.8-5.8-5.6c0-4,0.6-8.4,1.8-13.1
		s2.7-9.5,4.4-14.4c1.8-4.9,3.7-9.7,5.8-14.5c2.1-4.7,4-9.2,5.8-13.4s3.3-7.9,4.4-11.2c1.2-3.2,1.8-5.8,1.8-7.7
		c0-3.3-0.9-6.1-2.8-8.5c-1.8-2.4-4.3-3.6-7.4-3.6c-2.9,0-5.3,1.1-7.2,3.4c-1.9,2.2-3.6,5.1-5.1,8.5s-2.9,7.1-4.1,11.2
		c-1.3,4-2.8,7.8-4.4,11.3c-2.3,5.3-5.3,11.1-8.8,17.4s-7.5,12.3-11.8,17.8c-4.4,5.5-9.1,10.2-14.3,13.9c-5.2,3.7-10.6,5.6-16.2,5.6
		c-2,0-3.5-0.8-4.3-2.3c-0.9-1.5-1.3-3.2-1.3-5.1c0.2-4.4,0.9-9,2.2-13.7s2.9-9.3,4.7-13.9c1.8-4.5,3.8-8.9,6-13.2
		c2.1-4.2,4.1-8.2,6.1-11.8c1.9-3.6,3.6-6.9,5.1-9.7c1.4-2.8,2.3-5.1,2.8-6.9c0.3-0.9,0.4-1.9,0.4-3c0-1.6-0.4-3-1.1-4.1
		c-0.7-1.2-1.6-2.2-2.8-3c-1.1-0.8-2.3-1.3-3.7-1.7c-1.3-0.4-2.6-0.6-3.8-0.6c-2.8,0-5.4,0.9-7.8,2.6c-2.4,1.7-4.5,4.5-6.3,8.5
		c-7.1,14.8-12.7,27.5-16.6,38c-3.9,10.5-6.8,18.9-8.7,25.5c-1.8,6.6-3,11.4-3.3,14.4c-0.4,3.1-0.5,4.6-0.5,4.7
		c0,4.4,0.6,8.1,1.8,11.1s2.9,5.3,4.8,7c2,1.8,4.3,3,7,3.7s5.5,1.1,8.3,1.1c6.3,0,12.2-1.1,17.7-3.2c5.4-2.1,10.3-4.9,14.6-8.3
		s8.2-7.2,11.6-11.3c3.4-4.1,6.3-8.2,8.5-12.2c-1.4,6.3-2.1,11.8-2.1,16.6c0,6.7,1.3,11.5,3.9,14.3c2.6,2.8,6,4.2,10.2,4.2
		s8.9-1.1,14.1-3.5c5.3-2.3,10.6-5.4,16-9.2c1.5-1.1,3-2.2,4.5-3.4c0.1,1,0.3,1.9,0.5,2.8c0.6,2.7,1.6,5,3.1,7
		c1.4,1.9,3.4,3.5,5.8,4.6s5.4,1.7,9,1.7c5.3,0,10.6-1.2,16.2-3.7c5.5-2.5,11.1-5.8,16.7-10s11.3-9,16.9-14.5
		c0.2-0.2,0.3-0.3,0.5-0.5c-0.8,1.9-1.7,3.9-2.5,5.8c-4.5,10.2-9.2,20.5-14.1,30.9s-9.7,20.7-14.4,31.1c-0.7,1.9-1.5,3.8-2.3,5.8
		s-1.6,4-2.4,6.2c-0.8,2.1-1.4,4.2-1.9,6.4c-0.5,2.2-0.8,4.3-0.8,6.4c0,4.2,1,7.1,3.1,8.6s4.6,2.2,7.8,2.2c2.4,0,4.6-0.6,6.6-1.6
		c2-1.1,3.7-2.6,5.3-4.3c1.5-1.8,2.9-3.9,4.1-6.3s2.2-4.9,3.1-7.6c0.3-0.9,0.9-2.7,1.8-5.3c0.9-2.6,2-5.6,3.3-9s2.7-7,4.1-10.9
		c1.4-3.8,2.8-7.4,4.1-10.9c1.3-3.5,2.4-6.5,3.5-9.1c1-2.6,1.7-4.3,2.1-5.3c0.4-0.7,1-2,1.8-3.9s1.7-4.1,2.8-6.5
		c1.1-2.4,2.2-5,3.5-7.8c1.3-2.7,2.5-5.4,3.6-8c1.2-2.6,2.2-4.9,3.2-7c1-2,1.7-3.7,2.2-4.8c1.7-3.6,3.8-7.6,6.3-11.8
		c2.5-4.3,5.3-8.6,8.3-12.8c3-4.2,6.2-8.3,9.7-12.2c3.5-3.9,7-7.4,10.6-10.5s7.3-5.5,11-7.3s7.3-2.7,10.8-2.7c2,0,3.5,0.4,4.3,1.1
		c0.9,0.7,1.3,1.7,1.3,3c0,2.1-1.1,4.7-3.2,8.1c-2.1,3.3-4.7,6.9-7.9,10.9c-3.2,4-6.6,8.2-10.4,12.7c-3.8,4.4-7.3,8.8-10.6,13.2
		c-3.3,4.3-6.2,8.5-8.5,12.6c-2.4,4-3.7,7.6-4.1,10.7c-0.1,0.5-0.2,1-0.2,1.3s0,0.8,0,1.2c0,5.1,1.8,9,5.4,11.9s8.7,4.3,15.4,4.3
		c7.1,0,13.7-1.3,19.9-4c6.2-2.7,12.6-6.5,19-11.4c6.5-4.9,13.4-10.8,20.8-17.6c7.3-6.8,15.7-14.4,25-22.7c2.3-1.9,4.1-4.2,5.3-7
		c1.2-2.8,1.8-5.5,1.8-8.2C500,253.1,499.5,251,498.6,249.3z"/>
</g>
<path class="st1" d="M349.5,43.3L349.5,43.3l0.1-0.1l0,0c1.1-1.5-0.8-5.1-4.3-8.1c-3.6-3.1-7.4-4.4-8.7-3l0,0l-52.1,55.2l-10.3,42
	c-7.8-0.3-15.5-0.4-23.3-0.4c-54.9,0-99.4,6.3-99.4,14s44.5,14,99.4,14s99.4-6.3,99.4-14c0-5.7-24.1-10.6-58.8-12.8l8.9-35.1
	l49-51.6C349.4,43.4,349.4,43.3,349.5,43.3z M334.1,271.5l-1.3,11.2c0.3-0.3,0.6-0.6,0.9-0.8l-8.8,78.7c0,0-19.4,14.6-75.9,14.6
	s-75.2-14.8-75.2-14.8l-7.1-68h0.1l-3.3-32.6c0,0.1-0.1,0.2-0.1,0.4L152,150.8c0,0,12,10.9,97.4,10.9s98.8-11.1,98.8-11.1L335,270.4
	C334.7,270.8,334.4,271.2,334.1,271.5z M309,389.1l-4.2,70.6c0,7.3-24.2,13.3-54.1,13.3s-54.1-6-54.1-13.3l-4.6-68.6l-13.1-21.8
	c0,0,26.2,10.7,70.8,10.7s71.2-10.9,71.2-10.9L309,389.1z"/>
</svg>
