<?xml version="1.0" encoding="utf-8"?>
<!-- Generator: Adobe Illustrator 28.1.0, SVG Export Plug-In . SVG Version: 6.00 Build 0)  -->
<svg version="1.1" id="Camada_2_00000096770151779287933310000011776871926255920535_"
	 xmlns="http://www.w3.org/2000/svg" xmlns:xlink="http://www.w3.org/1999/xlink" x="0px" y="0px" viewBox="0 0 223 172"
	 style="enable-background:new 0 0 223 172;" xml:space="preserve">
<style type="text/css">
	.st0{fill:#FFFFFF;}
</style>
<g>
	<path class="st0" d="M221.3,19.3c-3.5,6.1-7.1,12.3-10.7,18.4c-14.5,25-29.1,50.1-43.6,75.1c-6.1,10.6-11.9,21.5-18.1,32
		c-2.2,3.7-5,7.3-8.1,10.1c-4.4,3.9-9.3,2.1-13.3-1c-0.9-0.7-0.7-4.2,0.2-5.8c16.4-28.5,33-56.9,49.5-85.4
		c7.5-13,14.9-26.2,22.2-39.4C204.9,13.5,211.3,12.1,221.3,19.3z"/>
	<path class="st0" d="M113.6,147.5c-4.4-3.1-8.5-6-13.1-9.2c6.8-12.1,13.3-23.8,20-35.4c14-24.1,28.1-48.1,42.1-72.2
		c4.9-8.5,9.1-10.3,16.1-6.7c3.5,1.8,4.6,4.2,2.5,7.9c-14,24-28.1,48.1-42,72.2c-7.6,13-15,26.2-22.5,39.2
		C115.9,144.6,114.9,145.8,113.6,147.5z"/>
	<path class="st0" d="M2.5,92.9c-2-5.2,0.1-8.6,5-10.2c3.5-1.1,7.2-1.6,10.9-1.8c5.5-0.2,9.9-1.1,14-5.8c2.7-3,8.1-4.9,12.3-5
		c14.9-0.6,29.1,2.7,43.9,8.8c-7.7,13.4-15.1,26.1-22.8,39.5C46.2,104.8,27.4,91.1,2.5,92.9z"/>
	<path class="st0" d="M143.3,39.2c-17.7,30.8-35.5,61.8-53.8,93.6c-4.9-2.9-9.3-5.5-14.4-8.5c9.4-16.3,18.5-31.9,27.5-47.5
		c6.7-11.7,13.4-23.4,20.1-35C128.7,31.4,134,30.7,143.3,39.2z"/>
</g>
</svg>
